<svg id="Group_233" data-name="Group 233" xmlns="http://www.w3.org/2000/svg" xmlns:xlink="http://www.w3.org/1999/xlink" width="1920" height="1083" viewBox="0 0 1920 1083">
  <defs>
    <linearGradient id="linear-gradient" x1="0.978" y1="0.054" x2="0" y2="1" gradientUnits="objectBoundingBox">
      <stop offset="0" stop-color="#4f2e58"/>
      <stop offset="1" stop-color="#180a4a"/>
      <stop offset="1" stop-color="#382780"/>
    </linearGradient>
    <clipPath id="clip-path">
      <rect id="Rectangle_164" data-name="Rectangle 164" width="1920" height="1080" fill="#fff" stroke="#707070" stroke-width="1"/>
    </clipPath>
    <linearGradient id="linear-gradient-2" x1="0.944" y1="0.646" x2="0" y2="0.72" gradientUnits="objectBoundingBox">
      <stop offset="0" stop-color="#ffd695"/>
      <stop offset="1" stop-color="#faa2a2"/>
    </linearGradient>
    <filter id="Ellipse_44" x="-167" y="396" width="335" height="335" filterUnits="userSpaceOnUse">
      <feOffset dy="30" input="SourceAlpha"/>
      <feGaussianBlur stdDeviation="25" result="blur"/>
      <feFlood flood-color="#d17a7a" flood-opacity="0.161"/>
      <feComposite operator="in" in2="blur"/>
      <feComposite in="SourceGraphic"/>
    </filter>
    <linearGradient id="linear-gradient-3" x1="0.961" y1="0.063" x2="0.125" y2="0.5" gradientUnits="objectBoundingBox">
      <stop offset="0" stop-color="#ff6c6c"/>
      <stop offset="1" stop-color="#ffbd08"/>
    </linearGradient>
    <filter id="Ellipse_45" x="1661" y="419" width="178" height="178" filterUnits="userSpaceOnUse">
      <feOffset dy="30" input="SourceAlpha"/>
      <feGaussianBlur stdDeviation="25" result="blur-2"/>
      <feFlood flood-color="#d17a7a" flood-opacity="0.161"/>
      <feComposite operator="in" in2="blur-2"/>
      <feComposite in="SourceGraphic"/>
    </filter>
    <linearGradient id="linear-gradient-4" x1="0.961" y1="0.063" x2="0" y2="1" gradientUnits="objectBoundingBox">
      <stop offset="0" stop-color="#ff6c6c"/>
      <stop offset="1" stop-color="#faa2e2"/>
    </linearGradient>
    <filter id="Ellipse_46" x="131" y="324" width="163" height="163" filterUnits="userSpaceOnUse">
      <feOffset dy="30" input="SourceAlpha"/>
      <feGaussianBlur stdDeviation="25" result="blur-3"/>
      <feFlood flood-color="#d17a7a" flood-opacity="0.161"/>
      <feComposite operator="in" in2="blur-3"/>
      <feComposite in="SourceGraphic"/>
    </filter>
    <filter id="Ellipse_47" x="1399" y="225" width="194" height="194" filterUnits="userSpaceOnUse">
      <feOffset dy="30" input="SourceAlpha"/>
      <feGaussianBlur stdDeviation="25" result="blur-4"/>
      <feFlood flood-color="#d17a7a" flood-opacity="0.161"/>
      <feComposite operator="in" in2="blur-4"/>
      <feComposite in="SourceGraphic"/>
    </filter>
    <linearGradient id="linear-gradient-6" x1="0.961" y1="0.063" x2="0.125" y2="0.5" xlink:href="#linear-gradient-4"/>
    <filter id="Ellipse_49" x="1792" y="572" width="256" height="256" filterUnits="userSpaceOnUse">
      <feOffset dy="30" input="SourceAlpha"/>
      <feGaussianBlur stdDeviation="25" result="blur-5"/>
      <feFlood flood-color="#d17a7a" flood-opacity="0.161"/>
      <feComposite operator="in" in2="blur-5"/>
      <feComposite in="SourceGraphic"/>
    </filter>
    <linearGradient id="linear-gradient-7" x1="0.961" y1="0.063" x2="0.125" y2="0.5" gradientUnits="objectBoundingBox">
      <stop offset="0" stop-color="#94ff6c"/>
      <stop offset="1" stop-color="#08cfff"/>
    </linearGradient>
    <filter id="Ellipse_50" x="63" y="803" width="189" height="189" filterUnits="userSpaceOnUse">
      <feOffset dy="30" input="SourceAlpha"/>
      <feGaussianBlur stdDeviation="25" result="blur-6"/>
      <feFlood flood-color="#d17a7a" flood-opacity="0.161"/>
      <feComposite operator="in" in2="blur-6"/>
      <feComposite in="SourceGraphic"/>
    </filter>
    <filter id="Ellipse_51" x="-8" y="269" width="163" height="163" filterUnits="userSpaceOnUse">
      <feOffset dy="30" input="SourceAlpha"/>
      <feGaussianBlur stdDeviation="25" result="blur-7"/>
      <feFlood flood-color="#d17a7a" flood-opacity="0.161"/>
      <feComposite operator="in" in2="blur-7"/>
      <feComposite in="SourceGraphic"/>
    </filter>
    <filter id="Ellipse_52" x="-102" y="622" width="205" height="205" filterUnits="userSpaceOnUse">
      <feOffset dy="30" input="SourceAlpha"/>
      <feGaussianBlur stdDeviation="25" result="blur-8"/>
      <feFlood flood-color="#d17a7a" flood-opacity="0.161"/>
      <feComposite operator="in" in2="blur-8"/>
      <feComposite in="SourceGraphic"/>
    </filter>
    <linearGradient id="linear-gradient-10" x1="0.961" y1="0.063" x2="0.125" y2="0.5" gradientUnits="objectBoundingBox">
      <stop offset="0" stop-color="#ffdeb1"/>
      <stop offset="1" stop-color="#ffbd08"/>
    </linearGradient>
    <filter id="Ellipse_53" x="-47" y="109" width="169" height="169" filterUnits="userSpaceOnUse">
      <feOffset dy="30" input="SourceAlpha"/>
      <feGaussianBlur stdDeviation="25" result="blur-9"/>
      <feFlood flood-color="#d17a7a" flood-opacity="0.161"/>
      <feComposite operator="in" in2="blur-9"/>
      <feComposite in="SourceGraphic"/>
    </filter>
    <filter id="Ellipse_54" x="1799" y="434" width="163" height="163" filterUnits="userSpaceOnUse">
      <feOffset dy="30" input="SourceAlpha"/>
      <feGaussianBlur stdDeviation="25" result="blur-10"/>
      <feFlood flood-color="#d17a7a" flood-opacity="0.161"/>
      <feComposite operator="in" in2="blur-10"/>
      <feComposite in="SourceGraphic"/>
    </filter>
    <filter id="Ellipse_55" x="833" y="-64" width="189" height="189" filterUnits="userSpaceOnUse">
      <feOffset dy="30" input="SourceAlpha"/>
      <feGaussianBlur stdDeviation="25" result="blur-11"/>
      <feFlood flood-color="#d17a7a" flood-opacity="0.161"/>
      <feComposite operator="in" in2="blur-11"/>
      <feComposite in="SourceGraphic"/>
    </filter>
  </defs>
  <rect id="Rectangle_1" data-name="Rectangle 1" width="1920" height="1083" fill="url(#linear-gradient)"/>
  <g id="Mask_Group_23" data-name="Mask Group 23" clip-path="url(#clip-path)">
    <g id="Group_232" data-name="Group 232">
      <g id="Group_189" data-name="Group 189" transform="translate(1164 -1843.201)" opacity="0.407">
        <g id="Group_21" data-name="Group 21" transform="translate(370 1927)">
          <circle id="Ellipse_15" data-name="Ellipse 15" cx="3.504" cy="3.504" r="3.504" transform="translate(0 0)" fill="#d36192"/>
          <circle id="Ellipse_15-2" data-name="Ellipse 15" cx="3.504" cy="3.504" r="3.504" transform="translate(17.021 0)" fill="#d36192"/>
          <circle id="Ellipse_15-3" data-name="Ellipse 15" cx="3.504" cy="3.504" r="3.504" transform="translate(34.043 0)" fill="#d36192"/>
          <circle id="Ellipse_15-4" data-name="Ellipse 15" cx="3.504" cy="3.504" r="3.504" transform="translate(51.064 0)" fill="#d36192"/>
          <circle id="Ellipse_15-5" data-name="Ellipse 15" cx="3.504" cy="3.504" r="3.504" transform="translate(68.085 0)" fill="#d36192"/>
          <circle id="Ellipse_15-6" data-name="Ellipse 15" cx="3.504" cy="3.504" r="3.504" transform="translate(85.107 0)" fill="#d36192"/>
          <circle id="Ellipse_15-7" data-name="Ellipse 15" cx="3.504" cy="3.504" r="3.504" transform="translate(102.128 0)" fill="#d36192"/>
          <circle id="Ellipse_15-8" data-name="Ellipse 15" cx="3.504" cy="3.504" r="3.504" transform="translate(119.149 0)" fill="#d36192"/>
          <circle id="Ellipse_15-9" data-name="Ellipse 15" cx="3.504" cy="3.504" r="3.504" transform="translate(136.17 0)" fill="#d36192"/>
          <circle id="Ellipse_15-10" data-name="Ellipse 15" cx="3.504" cy="3.504" r="3.504" transform="translate(153.192 0)" fill="#d36192"/>
          <circle id="Ellipse_15-11" data-name="Ellipse 15" cx="3.504" cy="3.504" r="3.504" transform="translate(170.213 0)" fill="#d36192"/>
          <circle id="Ellipse_15-12" data-name="Ellipse 15" cx="3.504" cy="3.504" r="3.504" transform="translate(187.234 0)" fill="#d36192"/>
          <circle id="Ellipse_15-13" data-name="Ellipse 15" cx="3.504" cy="3.504" r="3.504" transform="translate(0 17.021)" fill="#d36192"/>
          <circle id="Ellipse_15-14" data-name="Ellipse 15" cx="3.504" cy="3.504" r="3.504" transform="translate(17.021 17.021)" fill="#d36192"/>
          <circle id="Ellipse_15-15" data-name="Ellipse 15" cx="3.504" cy="3.504" r="3.504" transform="translate(34.043 17.021)" fill="#d36192"/>
          <circle id="Ellipse_15-16" data-name="Ellipse 15" cx="3.504" cy="3.504" r="3.504" transform="translate(51.064 17.021)" fill="#d36192"/>
          <circle id="Ellipse_15-17" data-name="Ellipse 15" cx="3.504" cy="3.504" r="3.504" transform="translate(68.085 17.021)" fill="#d36192"/>
          <circle id="Ellipse_15-18" data-name="Ellipse 15" cx="3.504" cy="3.504" r="3.504" transform="translate(85.107 17.021)" fill="#d36192"/>
          <circle id="Ellipse_15-19" data-name="Ellipse 15" cx="3.504" cy="3.504" r="3.504" transform="translate(102.128 17.021)" fill="#d36192"/>
          <circle id="Ellipse_15-20" data-name="Ellipse 15" cx="3.504" cy="3.504" r="3.504" transform="translate(119.149 17.021)" fill="#d36192"/>
          <circle id="Ellipse_15-21" data-name="Ellipse 15" cx="3.504" cy="3.504" r="3.504" transform="translate(136.17 17.021)" fill="#d36192"/>
          <circle id="Ellipse_15-22" data-name="Ellipse 15" cx="3.504" cy="3.504" r="3.504" transform="translate(153.192 17.021)" fill="#d36192"/>
          <circle id="Ellipse_15-23" data-name="Ellipse 15" cx="3.504" cy="3.504" r="3.504" transform="translate(170.213 17.021)" fill="#d36192"/>
          <circle id="Ellipse_15-24" data-name="Ellipse 15" cx="3.504" cy="3.504" r="3.504" transform="translate(187.234 17.021)" fill="#d36192"/>
          <circle id="Ellipse_15-25" data-name="Ellipse 15" cx="3.504" cy="3.504" r="3.504" transform="translate(0 34.043)" fill="#d36192"/>
          <circle id="Ellipse_15-26" data-name="Ellipse 15" cx="3.504" cy="3.504" r="3.504" transform="translate(17.021 34.043)" fill="#d36192"/>
          <circle id="Ellipse_15-27" data-name="Ellipse 15" cx="3.504" cy="3.504" r="3.504" transform="translate(34.043 34.043)" fill="#d36192"/>
          <circle id="Ellipse_15-28" data-name="Ellipse 15" cx="3.504" cy="3.504" r="3.504" transform="translate(51.064 34.043)" fill="#d36192"/>
          <circle id="Ellipse_15-29" data-name="Ellipse 15" cx="3.504" cy="3.504" r="3.504" transform="translate(68.085 34.043)" fill="#d36192"/>
          <circle id="Ellipse_15-30" data-name="Ellipse 15" cx="3.504" cy="3.504" r="3.504" transform="translate(85.107 34.043)" fill="#d36192"/>
          <circle id="Ellipse_15-31" data-name="Ellipse 15" cx="3.504" cy="3.504" r="3.504" transform="translate(102.128 34.043)" fill="#d36192"/>
          <circle id="Ellipse_15-32" data-name="Ellipse 15" cx="3.504" cy="3.504" r="3.504" transform="translate(119.149 34.043)" fill="#d36192"/>
          <circle id="Ellipse_15-33" data-name="Ellipse 15" cx="3.504" cy="3.504" r="3.504" transform="translate(136.17 34.043)" fill="#d36192"/>
          <circle id="Ellipse_15-34" data-name="Ellipse 15" cx="3.504" cy="3.504" r="3.504" transform="translate(153.192 34.043)" fill="#d36192"/>
          <circle id="Ellipse_15-35" data-name="Ellipse 15" cx="3.504" cy="3.504" r="3.504" transform="translate(170.213 34.043)" fill="#d36192"/>
          <circle id="Ellipse_15-36" data-name="Ellipse 15" cx="3.504" cy="3.504" r="3.504" transform="translate(187.234 34.043)" fill="#d36192"/>
          <circle id="Ellipse_15-37" data-name="Ellipse 15" cx="3.504" cy="3.504" r="3.504" transform="translate(0 51.064)" fill="#d36192"/>
          <circle id="Ellipse_15-38" data-name="Ellipse 15" cx="3.504" cy="3.504" r="3.504" transform="translate(17.021 51.064)" fill="#d36192"/>
          <circle id="Ellipse_15-39" data-name="Ellipse 15" cx="3.504" cy="3.504" r="3.504" transform="translate(34.043 51.064)" fill="#d36192"/>
          <circle id="Ellipse_15-40" data-name="Ellipse 15" cx="3.504" cy="3.504" r="3.504" transform="translate(51.064 51.064)" fill="#d36192"/>
          <circle id="Ellipse_15-41" data-name="Ellipse 15" cx="3.504" cy="3.504" r="3.504" transform="translate(68.085 51.064)" fill="#d36192"/>
          <circle id="Ellipse_15-42" data-name="Ellipse 15" cx="3.504" cy="3.504" r="3.504" transform="translate(85.107 51.064)" fill="#d36192"/>
          <circle id="Ellipse_15-43" data-name="Ellipse 15" cx="3.504" cy="3.504" r="3.504" transform="translate(102.128 51.064)" fill="#d36192"/>
          <circle id="Ellipse_15-44" data-name="Ellipse 15" cx="3.504" cy="3.504" r="3.504" transform="translate(119.149 51.064)" fill="#d36192"/>
          <circle id="Ellipse_15-45" data-name="Ellipse 15" cx="3.504" cy="3.504" r="3.504" transform="translate(136.17 51.064)" fill="#d36192"/>
          <circle id="Ellipse_15-46" data-name="Ellipse 15" cx="3.504" cy="3.504" r="3.504" transform="translate(153.192 51.064)" fill="#d36192"/>
          <circle id="Ellipse_15-47" data-name="Ellipse 15" cx="3.504" cy="3.504" r="3.504" transform="translate(170.213 51.064)" fill="#d36192"/>
          <circle id="Ellipse_15-48" data-name="Ellipse 15" cx="3.504" cy="3.504" r="3.504" transform="translate(187.234 51.064)" fill="#d36192"/>
          <circle id="Ellipse_15-49" data-name="Ellipse 15" cx="3.504" cy="3.504" r="3.504" transform="translate(0 68.085)" fill="#d36192"/>
          <circle id="Ellipse_15-50" data-name="Ellipse 15" cx="3.504" cy="3.504" r="3.504" transform="translate(17.021 68.085)" fill="#d36192"/>
          <circle id="Ellipse_15-51" data-name="Ellipse 15" cx="3.504" cy="3.504" r="3.504" transform="translate(34.043 68.085)" fill="#d36192"/>
          <circle id="Ellipse_15-52" data-name="Ellipse 15" cx="3.504" cy="3.504" r="3.504" transform="translate(51.064 68.085)" fill="#d36192"/>
          <circle id="Ellipse_15-53" data-name="Ellipse 15" cx="3.504" cy="3.504" r="3.504" transform="translate(68.085 68.085)" fill="#d36192"/>
          <circle id="Ellipse_15-54" data-name="Ellipse 15" cx="3.504" cy="3.504" r="3.504" transform="translate(85.107 68.085)" fill="#d36192"/>
          <circle id="Ellipse_15-55" data-name="Ellipse 15" cx="3.504" cy="3.504" r="3.504" transform="translate(102.128 68.085)" fill="#d36192"/>
          <circle id="Ellipse_15-56" data-name="Ellipse 15" cx="3.504" cy="3.504" r="3.504" transform="translate(119.149 68.085)" fill="#d36192"/>
          <circle id="Ellipse_15-57" data-name="Ellipse 15" cx="3.504" cy="3.504" r="3.504" transform="translate(136.17 68.085)" fill="#d36192"/>
          <circle id="Ellipse_15-58" data-name="Ellipse 15" cx="3.504" cy="3.504" r="3.504" transform="translate(153.192 68.085)" fill="#d36192"/>
          <circle id="Ellipse_15-59" data-name="Ellipse 15" cx="3.504" cy="3.504" r="3.504" transform="translate(170.213 68.085)" fill="#d36192"/>
          <circle id="Ellipse_15-60" data-name="Ellipse 15" cx="3.504" cy="3.504" r="3.504" transform="translate(187.234 68.085)" fill="#d36192"/>
          <circle id="Ellipse_15-61" data-name="Ellipse 15" cx="3.504" cy="3.504" r="3.504" transform="translate(0 85.107)" fill="#d36192"/>
          <circle id="Ellipse_15-62" data-name="Ellipse 15" cx="3.504" cy="3.504" r="3.504" transform="translate(17.021 85.107)" fill="#d36192"/>
          <circle id="Ellipse_15-63" data-name="Ellipse 15" cx="3.504" cy="3.504" r="3.504" transform="translate(34.043 85.107)" fill="#d36192"/>
          <circle id="Ellipse_15-64" data-name="Ellipse 15" cx="3.504" cy="3.504" r="3.504" transform="translate(51.064 85.107)" fill="#d36192"/>
          <circle id="Ellipse_15-65" data-name="Ellipse 15" cx="3.504" cy="3.504" r="3.504" transform="translate(68.085 85.107)" fill="#d36192"/>
          <circle id="Ellipse_15-66" data-name="Ellipse 15" cx="3.504" cy="3.504" r="3.504" transform="translate(85.107 85.107)" fill="#d36192"/>
          <circle id="Ellipse_15-67" data-name="Ellipse 15" cx="3.504" cy="3.504" r="3.504" transform="translate(102.128 85.107)" fill="#d36192"/>
          <circle id="Ellipse_15-68" data-name="Ellipse 15" cx="3.504" cy="3.504" r="3.504" transform="translate(119.149 85.107)" fill="#d36192"/>
          <circle id="Ellipse_15-69" data-name="Ellipse 15" cx="3.504" cy="3.504" r="3.504" transform="translate(136.17 85.107)" fill="#d36192"/>
          <circle id="Ellipse_15-70" data-name="Ellipse 15" cx="3.504" cy="3.504" r="3.504" transform="translate(153.192 85.107)" fill="#d36192"/>
          <circle id="Ellipse_15-71" data-name="Ellipse 15" cx="3.504" cy="3.504" r="3.504" transform="translate(170.213 85.107)" fill="#d36192"/>
          <circle id="Ellipse_15-72" data-name="Ellipse 15" cx="3.504" cy="3.504" r="3.504" transform="translate(187.234 85.107)" fill="#d36192"/>
          <circle id="Ellipse_15-73" data-name="Ellipse 15" cx="3.504" cy="3.504" r="3.504" transform="translate(0 102.128)" fill="#d36192"/>
          <circle id="Ellipse_15-74" data-name="Ellipse 15" cx="3.504" cy="3.504" r="3.504" transform="translate(17.021 102.128)" fill="#d36192"/>
          <circle id="Ellipse_15-75" data-name="Ellipse 15" cx="3.504" cy="3.504" r="3.504" transform="translate(34.043 102.128)" fill="#d36192"/>
          <circle id="Ellipse_15-76" data-name="Ellipse 15" cx="3.504" cy="3.504" r="3.504" transform="translate(51.064 102.128)" fill="#d36192"/>
          <circle id="Ellipse_15-77" data-name="Ellipse 15" cx="3.504" cy="3.504" r="3.504" transform="translate(68.085 102.128)" fill="#d36192"/>
          <circle id="Ellipse_15-78" data-name="Ellipse 15" cx="3.504" cy="3.504" r="3.504" transform="translate(85.107 102.128)" fill="#d36192"/>
          <circle id="Ellipse_15-79" data-name="Ellipse 15" cx="3.504" cy="3.504" r="3.504" transform="translate(102.128 102.128)" fill="#d36192"/>
          <circle id="Ellipse_15-80" data-name="Ellipse 15" cx="3.504" cy="3.504" r="3.504" transform="translate(119.149 102.128)" fill="#d36192"/>
          <circle id="Ellipse_15-81" data-name="Ellipse 15" cx="3.504" cy="3.504" r="3.504" transform="translate(136.17 102.128)" fill="#d36192"/>
          <circle id="Ellipse_15-82" data-name="Ellipse 15" cx="3.504" cy="3.504" r="3.504" transform="translate(153.192 102.128)" fill="#d36192"/>
          <circle id="Ellipse_15-83" data-name="Ellipse 15" cx="3.504" cy="3.504" r="3.504" transform="translate(170.213 102.128)" fill="#d36192"/>
          <circle id="Ellipse_15-84" data-name="Ellipse 15" cx="3.504" cy="3.504" r="3.504" transform="translate(187.234 102.128)" fill="#d36192"/>
          <circle id="Ellipse_15-85" data-name="Ellipse 15" cx="3.504" cy="3.504" r="3.504" transform="translate(0 119.149)" fill="#d36192"/>
          <circle id="Ellipse_15-86" data-name="Ellipse 15" cx="3.504" cy="3.504" r="3.504" transform="translate(17.021 119.149)" fill="#d36192"/>
          <circle id="Ellipse_15-87" data-name="Ellipse 15" cx="3.504" cy="3.504" r="3.504" transform="translate(34.043 119.149)" fill="#d36192"/>
          <circle id="Ellipse_15-88" data-name="Ellipse 15" cx="3.504" cy="3.504" r="3.504" transform="translate(51.064 119.149)" fill="#d36192"/>
          <circle id="Ellipse_15-89" data-name="Ellipse 15" cx="3.504" cy="3.504" r="3.504" transform="translate(68.085 119.149)" fill="#d36192"/>
          <circle id="Ellipse_15-90" data-name="Ellipse 15" cx="3.504" cy="3.504" r="3.504" transform="translate(85.107 119.149)" fill="#d36192"/>
          <circle id="Ellipse_15-91" data-name="Ellipse 15" cx="3.504" cy="3.504" r="3.504" transform="translate(102.128 119.149)" fill="#d36192"/>
          <circle id="Ellipse_15-92" data-name="Ellipse 15" cx="3.504" cy="3.504" r="3.504" transform="translate(119.149 119.149)" fill="#d36192"/>
          <circle id="Ellipse_15-93" data-name="Ellipse 15" cx="3.504" cy="3.504" r="3.504" transform="translate(136.17 119.149)" fill="#d36192"/>
          <circle id="Ellipse_15-94" data-name="Ellipse 15" cx="3.504" cy="3.504" r="3.504" transform="translate(153.192 119.149)" fill="#d36192"/>
          <circle id="Ellipse_15-95" data-name="Ellipse 15" cx="3.504" cy="3.504" r="3.504" transform="translate(170.213 119.149)" fill="#d36192"/>
          <circle id="Ellipse_15-96" data-name="Ellipse 15" cx="3.504" cy="3.504" r="3.504" transform="translate(187.234 119.149)" fill="#d36192"/>
          <circle id="Ellipse_15-97" data-name="Ellipse 15" cx="3.504" cy="3.504" r="3.504" transform="translate(0 136.17)" fill="#d36192"/>
          <circle id="Ellipse_15-98" data-name="Ellipse 15" cx="3.504" cy="3.504" r="3.504" transform="translate(17.021 136.17)" fill="#d36192"/>
          <circle id="Ellipse_15-99" data-name="Ellipse 15" cx="3.504" cy="3.504" r="3.504" transform="translate(34.043 136.17)" fill="#d36192"/>
          <circle id="Ellipse_15-100" data-name="Ellipse 15" cx="3.504" cy="3.504" r="3.504" transform="translate(51.064 136.17)" fill="#d36192"/>
          <circle id="Ellipse_15-101" data-name="Ellipse 15" cx="3.504" cy="3.504" r="3.504" transform="translate(68.085 136.17)" fill="#d36192"/>
          <circle id="Ellipse_15-102" data-name="Ellipse 15" cx="3.504" cy="3.504" r="3.504" transform="translate(85.107 136.17)" fill="#d36192"/>
          <circle id="Ellipse_15-103" data-name="Ellipse 15" cx="3.504" cy="3.504" r="3.504" transform="translate(102.128 136.17)" fill="#d36192"/>
          <circle id="Ellipse_15-104" data-name="Ellipse 15" cx="3.504" cy="3.504" r="3.504" transform="translate(119.149 136.17)" fill="#d36192"/>
          <circle id="Ellipse_15-105" data-name="Ellipse 15" cx="3.504" cy="3.504" r="3.504" transform="translate(136.17 136.17)" fill="#d36192"/>
          <circle id="Ellipse_15-106" data-name="Ellipse 15" cx="3.504" cy="3.504" r="3.504" transform="translate(153.192 136.17)" fill="#d36192"/>
          <circle id="Ellipse_15-107" data-name="Ellipse 15" cx="3.504" cy="3.504" r="3.504" transform="translate(170.213 136.17)" fill="#d36192"/>
          <circle id="Ellipse_15-108" data-name="Ellipse 15" cx="3.504" cy="3.504" r="3.504" transform="translate(187.234 136.17)" fill="#d36192"/>
          <circle id="Ellipse_15-109" data-name="Ellipse 15" cx="3.504" cy="3.504" r="3.504" transform="translate(0 153.192)" fill="#d36192"/>
          <circle id="Ellipse_15-110" data-name="Ellipse 15" cx="3.504" cy="3.504" r="3.504" transform="translate(17.021 153.192)" fill="#d36192"/>
          <circle id="Ellipse_15-111" data-name="Ellipse 15" cx="3.504" cy="3.504" r="3.504" transform="translate(34.043 153.192)" fill="#d36192"/>
          <circle id="Ellipse_15-112" data-name="Ellipse 15" cx="3.504" cy="3.504" r="3.504" transform="translate(51.064 153.192)" fill="#d36192"/>
          <circle id="Ellipse_15-113" data-name="Ellipse 15" cx="3.504" cy="3.504" r="3.504" transform="translate(68.085 153.192)" fill="#d36192"/>
          <circle id="Ellipse_15-114" data-name="Ellipse 15" cx="3.504" cy="3.504" r="3.504" transform="translate(85.107 153.192)" fill="#d36192"/>
          <circle id="Ellipse_15-115" data-name="Ellipse 15" cx="3.504" cy="3.504" r="3.504" transform="translate(102.128 153.192)" fill="#d36192"/>
          <circle id="Ellipse_15-116" data-name="Ellipse 15" cx="3.504" cy="3.504" r="3.504" transform="translate(119.149 153.192)" fill="#d36192"/>
          <circle id="Ellipse_15-117" data-name="Ellipse 15" cx="3.504" cy="3.504" r="3.504" transform="translate(136.17 153.192)" fill="#d36192"/>
          <circle id="Ellipse_15-118" data-name="Ellipse 15" cx="3.504" cy="3.504" r="3.504" transform="translate(153.192 153.192)" fill="#d36192"/>
          <circle id="Ellipse_15-119" data-name="Ellipse 15" cx="3.504" cy="3.504" r="3.504" transform="translate(170.213 153.192)" fill="#d36192"/>
          <circle id="Ellipse_15-120" data-name="Ellipse 15" cx="3.504" cy="3.504" r="3.504" transform="translate(187.234 153.192)" fill="#d36192"/>
        </g>
      </g>
      <g transform="matrix(1, 0, 0, 1, 0, 0)" filter="url(#Ellipse_44)">
        <circle id="Ellipse_44-2" data-name="Ellipse 44" cx="92.5" cy="92.5" r="92.5" transform="translate(-92 441)" opacity="0.5" fill="url(#linear-gradient-2)"/>
      </g>
      <g transform="matrix(1, 0, 0, 1, 0, 0)" filter="url(#Ellipse_45)">
        <circle id="Ellipse_45-2" data-name="Ellipse 45" cx="14" cy="14" r="14" transform="translate(1736 464)" opacity="0.5" fill="url(#linear-gradient-3)"/>
      </g>
      <g transform="matrix(1, 0, 0, 1, 0, 0)" filter="url(#Ellipse_46)">
        <circle id="Ellipse_46-2" data-name="Ellipse 46" cx="6.5" cy="6.5" r="6.5" transform="translate(206 369)" fill="url(#linear-gradient-4)"/>
      </g>
      <g transform="matrix(1, 0, 0, 1, 0, 0)" filter="url(#Ellipse_47)">
        <circle id="Ellipse_47-2" data-name="Ellipse 47" cx="22" cy="22" r="22" transform="translate(1474 270)" fill="url(#linear-gradient-4)"/>
      </g>
      <circle id="Ellipse_48" data-name="Ellipse 48" cx="87.5" cy="87.5" r="87.5" transform="translate(1534 183)" fill="#bf74ff" opacity="0.2"/>
      <g transform="matrix(1, 0, 0, 1, 0, 0)" filter="url(#Ellipse_49)">
        <circle id="Ellipse_49-2" data-name="Ellipse 49" cx="53" cy="53" r="53" transform="translate(1867 617)" opacity="0.7" fill="url(#linear-gradient-6)"/>
      </g>
      <g transform="matrix(1, 0, 0, 1, 0, 0)" filter="url(#Ellipse_50)">
        <circle id="Ellipse_50-2" data-name="Ellipse 50" cx="19.5" cy="19.5" r="19.5" transform="translate(138 848)" opacity="0.2" fill="url(#linear-gradient-7)"/>
      </g>
      <g transform="matrix(1, 0, 0, 1, 0, 0)" filter="url(#Ellipse_51)">
        <circle id="Ellipse_51-2" data-name="Ellipse 51" cx="6.5" cy="6.5" r="6.5" transform="translate(67 314)" opacity="0.2" fill="url(#linear-gradient-7)"/>
      </g>
      <g transform="matrix(1, 0, 0, 1, 0, 0)" filter="url(#Ellipse_52)">
        <circle id="Ellipse_52-2" data-name="Ellipse 52" cx="27.5" cy="27.5" r="27.5" transform="translate(-27 667)" fill="url(#linear-gradient-4)"/>
      </g>
      <g transform="matrix(1, 0, 0, 1, 0, 0)" filter="url(#Ellipse_53)">
        <circle id="Ellipse_53-2" data-name="Ellipse 53" cx="9.5" cy="9.5" r="9.5" transform="translate(28 154)" opacity="0.5" fill="url(#linear-gradient-10)"/>
      </g>
      <g transform="matrix(1, 0, 0, 1, 0, 0)" filter="url(#Ellipse_54)">
        <circle id="Ellipse_54-2" data-name="Ellipse 54" cx="6.5" cy="6.5" r="6.5" transform="translate(1874 479)" opacity="0.2" fill="url(#linear-gradient-7)"/>
      </g>
      <g transform="matrix(1, 0, 0, 1, 0, 0)" filter="url(#Ellipse_55)">
        <circle id="Ellipse_55-2" data-name="Ellipse 55" cx="19.5" cy="19.5" r="19.5" transform="translate(908 -19)" opacity="0.2" fill="url(#linear-gradient-7)"/>
      </g>
      <g id="Group_190" data-name="Group 190" transform="translate(1409.051 -644.639) rotate(45)" opacity="0.407">
        <g id="Group_21-2" data-name="Group 21" transform="translate(370 1927)">
          <circle id="Ellipse_15-121" data-name="Ellipse 15" cx="3.504" cy="3.504" r="3.504" transform="translate(0 0)" fill="#d36192"/>
          <circle id="Ellipse_15-122" data-name="Ellipse 15" cx="3.504" cy="3.504" r="3.504" transform="translate(17.021 0)" fill="#d36192"/>
          <circle id="Ellipse_15-123" data-name="Ellipse 15" cx="3.504" cy="3.504" r="3.504" transform="translate(34.043 0)" fill="#d36192"/>
          <circle id="Ellipse_15-124" data-name="Ellipse 15" cx="3.504" cy="3.504" r="3.504" transform="translate(51.064 0)" fill="#d36192"/>
          <circle id="Ellipse_15-125" data-name="Ellipse 15" cx="3.504" cy="3.504" r="3.504" transform="translate(68.085 0)" fill="#d36192"/>
          <circle id="Ellipse_15-126" data-name="Ellipse 15" cx="3.504" cy="3.504" r="3.504" transform="translate(85.107 0)" fill="#d36192"/>
          <circle id="Ellipse_15-127" data-name="Ellipse 15" cx="3.504" cy="3.504" r="3.504" transform="translate(102.128 0)" fill="#d36192"/>
          <circle id="Ellipse_15-128" data-name="Ellipse 15" cx="3.504" cy="3.504" r="3.504" transform="translate(119.149 0)" fill="#d36192"/>
          <circle id="Ellipse_15-129" data-name="Ellipse 15" cx="3.504" cy="3.504" r="3.504" transform="translate(136.17 0)" fill="#d36192"/>
          <circle id="Ellipse_15-130" data-name="Ellipse 15" cx="3.504" cy="3.504" r="3.504" transform="translate(153.192 0)" fill="#d36192"/>
          <circle id="Ellipse_15-131" data-name="Ellipse 15" cx="3.504" cy="3.504" r="3.504" transform="translate(170.213 0)" fill="#d36192"/>
          <circle id="Ellipse_15-132" data-name="Ellipse 15" cx="3.504" cy="3.504" r="3.504" transform="translate(187.234 0)" fill="#d36192"/>
          <circle id="Ellipse_15-133" data-name="Ellipse 15" cx="3.504" cy="3.504" r="3.504" transform="translate(0 17.021)" fill="#d36192"/>
          <circle id="Ellipse_15-134" data-name="Ellipse 15" cx="3.504" cy="3.504" r="3.504" transform="translate(17.021 17.021)" fill="#d36192"/>
          <circle id="Ellipse_15-135" data-name="Ellipse 15" cx="3.504" cy="3.504" r="3.504" transform="translate(34.043 17.021)" fill="#d36192"/>
          <circle id="Ellipse_15-136" data-name="Ellipse 15" cx="3.504" cy="3.504" r="3.504" transform="translate(51.064 17.021)" fill="#d36192"/>
          <circle id="Ellipse_15-137" data-name="Ellipse 15" cx="3.504" cy="3.504" r="3.504" transform="translate(68.085 17.021)" fill="#d36192"/>
          <circle id="Ellipse_15-138" data-name="Ellipse 15" cx="3.504" cy="3.504" r="3.504" transform="translate(85.107 17.021)" fill="#d36192"/>
          <circle id="Ellipse_15-139" data-name="Ellipse 15" cx="3.504" cy="3.504" r="3.504" transform="translate(102.128 17.021)" fill="#d36192"/>
          <circle id="Ellipse_15-140" data-name="Ellipse 15" cx="3.504" cy="3.504" r="3.504" transform="translate(119.149 17.021)" fill="#d36192"/>
          <circle id="Ellipse_15-141" data-name="Ellipse 15" cx="3.504" cy="3.504" r="3.504" transform="translate(136.17 17.021)" fill="#d36192"/>
          <circle id="Ellipse_15-142" data-name="Ellipse 15" cx="3.504" cy="3.504" r="3.504" transform="translate(153.192 17.021)" fill="#d36192"/>
          <circle id="Ellipse_15-143" data-name="Ellipse 15" cx="3.504" cy="3.504" r="3.504" transform="translate(170.213 17.021)" fill="#d36192"/>
          <circle id="Ellipse_15-144" data-name="Ellipse 15" cx="3.504" cy="3.504" r="3.504" transform="translate(187.234 17.021)" fill="#d36192"/>
          <circle id="Ellipse_15-145" data-name="Ellipse 15" cx="3.504" cy="3.504" r="3.504" transform="translate(0 34.043)" fill="#d36192"/>
          <circle id="Ellipse_15-146" data-name="Ellipse 15" cx="3.504" cy="3.504" r="3.504" transform="translate(17.021 34.043)" fill="#d36192"/>
          <circle id="Ellipse_15-147" data-name="Ellipse 15" cx="3.504" cy="3.504" r="3.504" transform="translate(34.043 34.043)" fill="#d36192"/>
          <circle id="Ellipse_15-148" data-name="Ellipse 15" cx="3.504" cy="3.504" r="3.504" transform="translate(51.064 34.043)" fill="#d36192"/>
          <circle id="Ellipse_15-149" data-name="Ellipse 15" cx="3.504" cy="3.504" r="3.504" transform="translate(68.085 34.043)" fill="#d36192"/>
          <circle id="Ellipse_15-150" data-name="Ellipse 15" cx="3.504" cy="3.504" r="3.504" transform="translate(85.107 34.043)" fill="#d36192"/>
          <circle id="Ellipse_15-151" data-name="Ellipse 15" cx="3.504" cy="3.504" r="3.504" transform="translate(102.128 34.043)" fill="#d36192"/>
          <circle id="Ellipse_15-152" data-name="Ellipse 15" cx="3.504" cy="3.504" r="3.504" transform="translate(119.149 34.043)" fill="#d36192"/>
          <circle id="Ellipse_15-153" data-name="Ellipse 15" cx="3.504" cy="3.504" r="3.504" transform="translate(136.17 34.043)" fill="#d36192"/>
          <circle id="Ellipse_15-154" data-name="Ellipse 15" cx="3.504" cy="3.504" r="3.504" transform="translate(153.192 34.043)" fill="#d36192"/>
          <circle id="Ellipse_15-155" data-name="Ellipse 15" cx="3.504" cy="3.504" r="3.504" transform="translate(170.213 34.043)" fill="#d36192"/>
          <circle id="Ellipse_15-156" data-name="Ellipse 15" cx="3.504" cy="3.504" r="3.504" transform="translate(187.234 34.043)" fill="#d36192"/>
          <circle id="Ellipse_15-157" data-name="Ellipse 15" cx="3.504" cy="3.504" r="3.504" transform="translate(0 51.064)" fill="#d36192"/>
          <circle id="Ellipse_15-158" data-name="Ellipse 15" cx="3.504" cy="3.504" r="3.504" transform="translate(17.021 51.064)" fill="#d36192"/>
          <circle id="Ellipse_15-159" data-name="Ellipse 15" cx="3.504" cy="3.504" r="3.504" transform="translate(34.043 51.064)" fill="#d36192"/>
          <circle id="Ellipse_15-160" data-name="Ellipse 15" cx="3.504" cy="3.504" r="3.504" transform="translate(51.064 51.064)" fill="#d36192"/>
          <circle id="Ellipse_15-161" data-name="Ellipse 15" cx="3.504" cy="3.504" r="3.504" transform="translate(68.085 51.064)" fill="#d36192"/>
          <circle id="Ellipse_15-162" data-name="Ellipse 15" cx="3.504" cy="3.504" r="3.504" transform="translate(85.107 51.064)" fill="#d36192"/>
          <circle id="Ellipse_15-163" data-name="Ellipse 15" cx="3.504" cy="3.504" r="3.504" transform="translate(102.128 51.064)" fill="#d36192"/>
          <circle id="Ellipse_15-164" data-name="Ellipse 15" cx="3.504" cy="3.504" r="3.504" transform="translate(119.149 51.064)" fill="#d36192"/>
          <circle id="Ellipse_15-165" data-name="Ellipse 15" cx="3.504" cy="3.504" r="3.504" transform="translate(136.17 51.064)" fill="#d36192"/>
          <circle id="Ellipse_15-166" data-name="Ellipse 15" cx="3.504" cy="3.504" r="3.504" transform="translate(153.192 51.064)" fill="#d36192"/>
          <circle id="Ellipse_15-167" data-name="Ellipse 15" cx="3.504" cy="3.504" r="3.504" transform="translate(170.213 51.064)" fill="#d36192"/>
          <circle id="Ellipse_15-168" data-name="Ellipse 15" cx="3.504" cy="3.504" r="3.504" transform="translate(187.234 51.064)" fill="#d36192"/>
          <circle id="Ellipse_15-169" data-name="Ellipse 15" cx="3.504" cy="3.504" r="3.504" transform="translate(0 68.085)" fill="#d36192"/>
          <circle id="Ellipse_15-170" data-name="Ellipse 15" cx="3.504" cy="3.504" r="3.504" transform="translate(17.021 68.085)" fill="#d36192"/>
          <circle id="Ellipse_15-171" data-name="Ellipse 15" cx="3.504" cy="3.504" r="3.504" transform="translate(34.043 68.085)" fill="#d36192"/>
          <circle id="Ellipse_15-172" data-name="Ellipse 15" cx="3.504" cy="3.504" r="3.504" transform="translate(51.064 68.085)" fill="#d36192"/>
          <circle id="Ellipse_15-173" data-name="Ellipse 15" cx="3.504" cy="3.504" r="3.504" transform="translate(68.085 68.085)" fill="#d36192"/>
          <circle id="Ellipse_15-174" data-name="Ellipse 15" cx="3.504" cy="3.504" r="3.504" transform="translate(85.107 68.085)" fill="#d36192"/>
          <circle id="Ellipse_15-175" data-name="Ellipse 15" cx="3.504" cy="3.504" r="3.504" transform="translate(102.128 68.085)" fill="#d36192"/>
          <circle id="Ellipse_15-176" data-name="Ellipse 15" cx="3.504" cy="3.504" r="3.504" transform="translate(119.149 68.085)" fill="#d36192"/>
          <circle id="Ellipse_15-177" data-name="Ellipse 15" cx="3.504" cy="3.504" r="3.504" transform="translate(136.17 68.085)" fill="#d36192"/>
          <circle id="Ellipse_15-178" data-name="Ellipse 15" cx="3.504" cy="3.504" r="3.504" transform="translate(153.192 68.085)" fill="#d36192"/>
          <circle id="Ellipse_15-179" data-name="Ellipse 15" cx="3.504" cy="3.504" r="3.504" transform="translate(170.213 68.085)" fill="#d36192"/>
          <circle id="Ellipse_15-180" data-name="Ellipse 15" cx="3.504" cy="3.504" r="3.504" transform="translate(187.234 68.085)" fill="#d36192"/>
          <circle id="Ellipse_15-181" data-name="Ellipse 15" cx="3.504" cy="3.504" r="3.504" transform="translate(0 85.107)" fill="#d36192"/>
          <circle id="Ellipse_15-182" data-name="Ellipse 15" cx="3.504" cy="3.504" r="3.504" transform="translate(17.021 85.107)" fill="#d36192"/>
          <circle id="Ellipse_15-183" data-name="Ellipse 15" cx="3.504" cy="3.504" r="3.504" transform="translate(34.043 85.107)" fill="#d36192"/>
          <circle id="Ellipse_15-184" data-name="Ellipse 15" cx="3.504" cy="3.504" r="3.504" transform="translate(51.064 85.107)" fill="#d36192"/>
          <circle id="Ellipse_15-185" data-name="Ellipse 15" cx="3.504" cy="3.504" r="3.504" transform="translate(68.085 85.107)" fill="#d36192"/>
          <circle id="Ellipse_15-186" data-name="Ellipse 15" cx="3.504" cy="3.504" r="3.504" transform="translate(85.107 85.107)" fill="#d36192"/>
          <circle id="Ellipse_15-187" data-name="Ellipse 15" cx="3.504" cy="3.504" r="3.504" transform="translate(102.128 85.107)" fill="#d36192"/>
          <circle id="Ellipse_15-188" data-name="Ellipse 15" cx="3.504" cy="3.504" r="3.504" transform="translate(119.149 85.107)" fill="#d36192"/>
          <circle id="Ellipse_15-189" data-name="Ellipse 15" cx="3.504" cy="3.504" r="3.504" transform="translate(136.17 85.107)" fill="#d36192"/>
          <circle id="Ellipse_15-190" data-name="Ellipse 15" cx="3.504" cy="3.504" r="3.504" transform="translate(153.192 85.107)" fill="#d36192"/>
          <circle id="Ellipse_15-191" data-name="Ellipse 15" cx="3.504" cy="3.504" r="3.504" transform="translate(170.213 85.107)" fill="#d36192"/>
          <circle id="Ellipse_15-192" data-name="Ellipse 15" cx="3.504" cy="3.504" r="3.504" transform="translate(187.234 85.107)" fill="#d36192"/>
          <circle id="Ellipse_15-193" data-name="Ellipse 15" cx="3.504" cy="3.504" r="3.504" transform="translate(0 102.128)" fill="#d36192"/>
          <circle id="Ellipse_15-194" data-name="Ellipse 15" cx="3.504" cy="3.504" r="3.504" transform="translate(17.021 102.128)" fill="#d36192"/>
          <circle id="Ellipse_15-195" data-name="Ellipse 15" cx="3.504" cy="3.504" r="3.504" transform="translate(34.043 102.128)" fill="#d36192"/>
          <circle id="Ellipse_15-196" data-name="Ellipse 15" cx="3.504" cy="3.504" r="3.504" transform="translate(51.064 102.128)" fill="#d36192"/>
          <circle id="Ellipse_15-197" data-name="Ellipse 15" cx="3.504" cy="3.504" r="3.504" transform="translate(68.085 102.128)" fill="#d36192"/>
          <circle id="Ellipse_15-198" data-name="Ellipse 15" cx="3.504" cy="3.504" r="3.504" transform="translate(85.107 102.128)" fill="#d36192"/>
          <circle id="Ellipse_15-199" data-name="Ellipse 15" cx="3.504" cy="3.504" r="3.504" transform="translate(102.128 102.128)" fill="#d36192"/>
          <circle id="Ellipse_15-200" data-name="Ellipse 15" cx="3.504" cy="3.504" r="3.504" transform="translate(119.149 102.128)" fill="#d36192"/>
          <circle id="Ellipse_15-201" data-name="Ellipse 15" cx="3.504" cy="3.504" r="3.504" transform="translate(136.17 102.128)" fill="#d36192"/>
          <circle id="Ellipse_15-202" data-name="Ellipse 15" cx="3.504" cy="3.504" r="3.504" transform="translate(153.192 102.128)" fill="#d36192"/>
          <circle id="Ellipse_15-203" data-name="Ellipse 15" cx="3.504" cy="3.504" r="3.504" transform="translate(170.213 102.128)" fill="#d36192"/>
          <circle id="Ellipse_15-204" data-name="Ellipse 15" cx="3.504" cy="3.504" r="3.504" transform="translate(187.234 102.128)" fill="#d36192"/>
          <circle id="Ellipse_15-205" data-name="Ellipse 15" cx="3.504" cy="3.504" r="3.504" transform="translate(0 119.149)" fill="#d36192"/>
          <circle id="Ellipse_15-206" data-name="Ellipse 15" cx="3.504" cy="3.504" r="3.504" transform="translate(17.021 119.149)" fill="#d36192"/>
          <circle id="Ellipse_15-207" data-name="Ellipse 15" cx="3.504" cy="3.504" r="3.504" transform="translate(34.043 119.149)" fill="#d36192"/>
          <circle id="Ellipse_15-208" data-name="Ellipse 15" cx="3.504" cy="3.504" r="3.504" transform="translate(51.064 119.149)" fill="#d36192"/>
          <circle id="Ellipse_15-209" data-name="Ellipse 15" cx="3.504" cy="3.504" r="3.504" transform="translate(68.085 119.149)" fill="#d36192"/>
          <circle id="Ellipse_15-210" data-name="Ellipse 15" cx="3.504" cy="3.504" r="3.504" transform="translate(85.107 119.149)" fill="#d36192"/>
          <circle id="Ellipse_15-211" data-name="Ellipse 15" cx="3.504" cy="3.504" r="3.504" transform="translate(102.128 119.149)" fill="#d36192"/>
          <circle id="Ellipse_15-212" data-name="Ellipse 15" cx="3.504" cy="3.504" r="3.504" transform="translate(119.149 119.149)" fill="#d36192"/>
          <circle id="Ellipse_15-213" data-name="Ellipse 15" cx="3.504" cy="3.504" r="3.504" transform="translate(136.17 119.149)" fill="#d36192"/>
          <circle id="Ellipse_15-214" data-name="Ellipse 15" cx="3.504" cy="3.504" r="3.504" transform="translate(153.192 119.149)" fill="#d36192"/>
          <circle id="Ellipse_15-215" data-name="Ellipse 15" cx="3.504" cy="3.504" r="3.504" transform="translate(170.213 119.149)" fill="#d36192"/>
          <circle id="Ellipse_15-216" data-name="Ellipse 15" cx="3.504" cy="3.504" r="3.504" transform="translate(187.234 119.149)" fill="#d36192"/>
          <circle id="Ellipse_15-217" data-name="Ellipse 15" cx="3.504" cy="3.504" r="3.504" transform="translate(0 136.17)" fill="#d36192"/>
          <circle id="Ellipse_15-218" data-name="Ellipse 15" cx="3.504" cy="3.504" r="3.504" transform="translate(17.021 136.17)" fill="#d36192"/>
          <circle id="Ellipse_15-219" data-name="Ellipse 15" cx="3.504" cy="3.504" r="3.504" transform="translate(34.043 136.17)" fill="#d36192"/>
          <circle id="Ellipse_15-220" data-name="Ellipse 15" cx="3.504" cy="3.504" r="3.504" transform="translate(51.064 136.17)" fill="#d36192"/>
          <circle id="Ellipse_15-221" data-name="Ellipse 15" cx="3.504" cy="3.504" r="3.504" transform="translate(68.085 136.17)" fill="#d36192"/>
          <circle id="Ellipse_15-222" data-name="Ellipse 15" cx="3.504" cy="3.504" r="3.504" transform="translate(85.107 136.17)" fill="#d36192"/>
          <circle id="Ellipse_15-223" data-name="Ellipse 15" cx="3.504" cy="3.504" r="3.504" transform="translate(102.128 136.17)" fill="#d36192"/>
          <circle id="Ellipse_15-224" data-name="Ellipse 15" cx="3.504" cy="3.504" r="3.504" transform="translate(119.149 136.17)" fill="#d36192"/>
          <circle id="Ellipse_15-225" data-name="Ellipse 15" cx="3.504" cy="3.504" r="3.504" transform="translate(136.17 136.17)" fill="#d36192"/>
          <circle id="Ellipse_15-226" data-name="Ellipse 15" cx="3.504" cy="3.504" r="3.504" transform="translate(153.192 136.17)" fill="#d36192"/>
          <circle id="Ellipse_15-227" data-name="Ellipse 15" cx="3.504" cy="3.504" r="3.504" transform="translate(170.213 136.17)" fill="#d36192"/>
          <circle id="Ellipse_15-228" data-name="Ellipse 15" cx="3.504" cy="3.504" r="3.504" transform="translate(187.234 136.17)" fill="#d36192"/>
          <circle id="Ellipse_15-229" data-name="Ellipse 15" cx="3.504" cy="3.504" r="3.504" transform="translate(0 153.192)" fill="#d36192"/>
          <circle id="Ellipse_15-230" data-name="Ellipse 15" cx="3.504" cy="3.504" r="3.504" transform="translate(17.021 153.192)" fill="#d36192"/>
          <circle id="Ellipse_15-231" data-name="Ellipse 15" cx="3.504" cy="3.504" r="3.504" transform="translate(34.043 153.192)" fill="#d36192"/>
          <circle id="Ellipse_15-232" data-name="Ellipse 15" cx="3.504" cy="3.504" r="3.504" transform="translate(51.064 153.192)" fill="#d36192"/>
          <circle id="Ellipse_15-233" data-name="Ellipse 15" cx="3.504" cy="3.504" r="3.504" transform="translate(68.085 153.192)" fill="#d36192"/>
          <circle id="Ellipse_15-234" data-name="Ellipse 15" cx="3.504" cy="3.504" r="3.504" transform="translate(85.107 153.192)" fill="#d36192"/>
          <circle id="Ellipse_15-235" data-name="Ellipse 15" cx="3.504" cy="3.504" r="3.504" transform="translate(102.128 153.192)" fill="#d36192"/>
          <circle id="Ellipse_15-236" data-name="Ellipse 15" cx="3.504" cy="3.504" r="3.504" transform="translate(119.149 153.192)" fill="#d36192"/>
          <circle id="Ellipse_15-237" data-name="Ellipse 15" cx="3.504" cy="3.504" r="3.504" transform="translate(136.17 153.192)" fill="#d36192"/>
          <circle id="Ellipse_15-238" data-name="Ellipse 15" cx="3.504" cy="3.504" r="3.504" transform="translate(153.192 153.192)" fill="#d36192"/>
          <circle id="Ellipse_15-239" data-name="Ellipse 15" cx="3.504" cy="3.504" r="3.504" transform="translate(170.213 153.192)" fill="#d36192"/>
          <circle id="Ellipse_15-240" data-name="Ellipse 15" cx="3.504" cy="3.504" r="3.504" transform="translate(187.234 153.192)" fill="#d36192"/>
        </g>
      </g>
    </g>
  </g>
</svg>
